<svg version="1" xmlns="http://www.w3.org/2000/svg" width="28" height="43" viewBox="0 0 280 430"><path d="M157 333c-4-3-7-35-7-70 0-45 4-63 13-63 10 0 12 16 10 63-3 60-3 61 9 27 8-21 21-36 33-39 15-3 17 0 8 10-6 8-14 29-18 47-6 30-30 43-48 25zm-44-39c-7-7-13-29-13-49s-7-49-15-65c-13-25-13-30-2-30 21 0 49 71 45 117-2 33-5 38-15 27zm-81-87C6 180 0 166 0 131c0-50 18-91 30-71 5 7 4 24-1 37-15 39-11 66 16 106 32 46 28 47-13 4z" fill="#fd3f73"/><g fill="#fd3e52"><path d="M227 209c32-49 34-96 4-137C192 16 106 5 65 50c-22 24-35 26-35 5C30 30 90 0 139 0c116 0 179 124 111 220-34 48-56 38-23-11z"/><path d="M160 192c0-15 28-47 35-40 11 11-5 48-21 48-8 0-14-4-14-8z"/></g><path d="M135 390c-4-6 7-10 24-10s31 5 31 10c0 6-11 10-24 10-14 0-28-4-31-10zm-30-30c-4-6 10-10 34-10 22 0 43 5 46 10 4 6-10 10-34 10-22 0-43-4-46-10zm-28-27c-4-3-7-13-7-22 0-16-12-42-44-96-14-23-9-20 23 14 23 24 41 50 41 58s4 12 9 8c5-3 22 6 37 20l27 25h-40c-22 0-43-3-46-7z" fill="#fd3f8f"/><path d="M100 420c0-5 13-10 29-10 17 0 33 5 36 10 4 6-8 10-29 10-20 0-36-4-36-10zm-10-30c0-5 9-10 19-10 11 0 23 5 26 10 4 6-5 10-19 10s-26-4-26-10zm0-31c0-5 5-7 10-4 6 3 10 8 10 11 0 2-4 4-10 4-5 0-10-5-10-11z" fill="#fd3fa5"/></svg>