<svg version="1" xmlns="http://www.w3.org/2000/svg" width="22" height="38" viewBox="0 0 220 380"><path d="M116 281c-3-5 10-29 30-55l35-46h-80l6-35c3-19 3-35 0-35s-20 20-37 45l-31 45h36c32 0 35 2 35 31 0 20-4 29-12 26-7-2-12-12-12-21 1-9-6-16-16-16-9 0-24-8-34-18-15-18-13-23 45-103 33-46 64-85 69-87 4-2 2 30-6 70s-14 74-14 76c0 1 18 2 40 2s40 4 40 8c0 9-79 122-85 122-2 0-6-4-9-9z" fill="#fd3f75"/><path d="M82 307c-6-7-9-23-5-35l5-22 23 22c17 17 21 26 13 35-13 16-23 16-36 0zM0 211c0-19 22-23 38-7 15 15 14 16-11 16-15 0-27-4-27-9z" fill="#fd3f8e"/><path d="M61 363c1-10 4-29 8-42 6-21 8-22 19-8 11 13 10 20-3 41-20 31-25 32-24 9z" fill="#fd3fa9"/></svg>