<svg version="1" xmlns="http://www.w3.org/2000/svg" width="46" height="31" viewBox="0 0 460 310"><path d="M385 270c-4-6 7-10 24-10h31V20H286c-93 0-157-4-161-10-4-7 53-10 164-10h171v280h-34c-19 0-38-4-41-10z" fill="#fd3e52"/><path d="M230 285l-23-25h86c91 0 135 19 50 22-36 1-40 2-15 5 52 7 37 23-21 23-44 0-58-4-77-25zM0 30C0 0 0 0 59 0c33 0 63 5 66 10 4 6-15 10-49 10-49 0-56 2-56 20 0 11-4 20-10 20C5 60 0 47 0 30z" fill="#fd3f72"/><path d="M155 300c-3-5-3-10 2-11 4 0-3-5-17-12-24-11-23-11 19-15 37-3 49 1 70 22l26 26h-47c-26 0-50-4-53-10zM7 153c-11-10-8-93 3-93 6 0 10 23 10 50 0 51-1 55-13 43z" fill="#fd3f90"/><path d="M100 300c0-5 11-10 24-10 14 0 28 5 31 10 4 6-7 10-24 10s-31-4-31-10zM0 214c0-41 4-63 10-59 5 3 10 28 10 56v49h49c28 0 53 5 56 10 4 6-18 10-59 10H0v-66z" fill="#fd3fab"/></svg>