<svg version="1" xmlns="http://www.w3.org/2000/svg" width="102" height="43" viewBox="0 0 1020 430"><path d="M440 415c-16-19-5-34 12-17s45 15 52-4c5-13 1-15-19-10-27 7-65-22-65-50 0-38 20-54 65-52l45 1v62c0 34-5 66-12 73-17 17-63 15-78-3zm64-71c7-19-10-44-31-44-17 0-27 24-19 45 7 20 42 19 50-1zm356 80c0-3 4-14 10-24 13-25-7-80-29-80-9 0-22-5-28-11-18-18-45-2-41 23 3 20 8 23 41 21 43-3 46 1 13 22-18 12-30 13-50 5-24-9-27-14-24-52l3-43 57-2c55-1 57 0 68 30l12 32 14-32c12-29 34-45 34-26 0 24-55 143-67 143-7 0-13-3-13-6zm-298-45c-20-7-23-15-20-51 3-41 5-43 36-46 18-2 40 2 48 9 10 8 14 8 14 0 0-18 87-14 94 5 10 25 7 84-4 84-5 0-10-12-10-27 0-37-14-57-34-50-10 4-16 19-16 42 0 24-4 35-15 35-8 0-15-5-15-11 0-5-10-3-22 5-25 18-25 18-56 5zm63-29c15-7 10-9-23-9-26-1-41 3-37 9 7 12 32 12 60 0zm-15-40c0-5-9-10-19-10-11 0-23 5-26 10-4 6 5 10 19 10s26-4 26-10zm-300 64c0-23 45-124 55-124 7 0 22 27 34 61 22 60 22 84-1 61-15-15-55-16-63-2-7 11-25 14-25 4zm69-41c-1-16-18-48-18-36-1 6-4 18-7 27-4 11-1 16 10 16 9 0 16-3 15-7zm611 37c0-5 7-10 15-10s15 5 15 10c0 6-7 10-15 10s-15-4-15-10zM215 208c-31-18-35-28-35-100V40h60v61c0 57 1 60 23 57 19-3 22-10 25-60 3-57 4-58 32-58h30v170h-37c-21 0-47 2-58 5s-29 0-40-7zm319 2c-30-12-54-49-54-83 0-22-4-28-17-25-14 2-19 15-21 56-3 50-4 52-33 52h-29V41h55c43 1 55 5 55 17 0 13 2 13 18-1 13-12 37-16 90-16h72v170l-37-1c-21-1-47 1-58 4s-30 1-41-4zm65-64c15-18-2-56-23-56s-38 27-31 50 37 27 54 6zM0 105V0h69c61 0 72 3 85 22 36 51 4 108-59 108-34 0-35 1-35 40 0 38-2 40-30 40H0V105zm99-24c19-12 6-41-19-41-15 0-20 7-20 25 0 26 14 31 39 16z" fill="#fff"/></svg>